<?xml version="1.0" standalone="no"?>
<!DOCTYPE svg PUBLIC "-//W3C//DTD SVG 20010904//EN"
 "http://www.w3.org/TR/2001/REC-SVG-20010904/DTD/svg10.dtd">
<svg version="1.0" xmlns="http://www.w3.org/2000/svg"
 width="260.000000pt" height="260.000000pt" viewBox="0 0 260.000000 260.000000"
 preserveAspectRatio="xMidYMid meet">
<metadata>
Created by potrace 1.11, written by Peter Selinger 2001-2013
</metadata>
<g transform="translate(0.000000,260.000000) scale(0.100000,-0.100000)"
fill="#000000" stroke="none">
<path d="M1055 2306 c-16 -11 -17 -22 -11 -87 l7 -74 -23 32 c-27 39 -32 39
-59 12 l-21 -21 21 -22 c28 -30 27 -40 -3 -21 -13 9 -47 18 -75 22 -49 6 -51
5 -51 -18 0 -20 12 -30 65 -57 71 -35 140 -92 167 -140 l18 -29 -49 -7 c-83
-11 -206 -54 -231 -81 -23 -25 -24 -30 -21 -168 1 -78 4 -158 7 -177 5 -43 14
-208 29 -522 3 -76 8 -157 11 -180 3 -24 5 -52 5 -63 -1 -38 21 -74 55 -90 50
-23 150 -37 219 -30 33 3 83 7 110 10 l50 4 -1 -102 c0 -56 4 -110 8 -120 6
-11 5 -17 -2 -17 -6 0 -8 -5 -4 -12 5 -7 9 -39 9 -70 1 -47 -3 -61 -20 -76
-19 -17 -21 -28 -19 -103 1 -46 2 -87 3 -91 0 -5 69 -8 151 -8 l150 0 -6 48
c-4 26 -7 62 -8 79 -1 18 -4 33 -8 33 -3 0 -4 9 -1 20 4 13 -1 22 -13 27 -16
7 -19 20 -21 78 0 39 -4 138 -7 222 l-6 151 65 23 65 24 -6 160 c-3 88 -6 237
-8 330 -6 287 -17 629 -21 642 -8 24 -99 59 -180 69 -11 1 -20 3 -20 4 0 1
-25 3 -56 5 -72 2 -82 9 -74 48 22 107 88 217 130 217 10 0 15 10 15 31 0 39
-23 63 -52 53 -32 -10 -67 -37 -68 -51 0 -6 -4 -13 -8 -15 -4 -1 -18 -23 -30
-48 l-22 -45 3 46 c2 25 11 60 20 78 15 30 15 33 -4 52 -21 21 -35 18 -59 -15
-19 -27 -40 -103 -33 -125 4 -14 3 -14 -5 -1 -6 9 -14 42 -17 75 -4 32 -8 65
-9 73 -4 23 -31 33 -51 18z"/>
</g>
</svg>
